<svg width="18" height="18" viewBox="0 0 18 18" fill="none" xmlns="http://www.w3.org/2000/svg">
<g clip-path="url(#clip0_19_2031)">
<path d="M17.02 7.18916H16.3323V7.15373H8.64868V10.5687H13.4736C12.7697 12.5566 10.8782 13.9836 8.64868 13.9836C5.81983 13.9836 3.52627 11.6901 3.52627 8.86121C3.52627 6.03235 5.81983 3.73879 8.64868 3.73879C9.95447 3.73879 11.1424 4.2314 12.047 5.03604L14.4618 2.62125C12.937 1.20021 10.8974 0.323853 8.64868 0.323853C3.93393 0.323853 0.111328 4.14645 0.111328 8.86121C0.111328 13.576 3.93393 17.3986 8.64868 17.3986C13.3634 17.3986 17.186 13.576 17.186 8.86121C17.186 8.28878 17.1271 7.73001 17.02 7.18916Z" fill="#FFC107"/>
<path d="M1.09473 4.88749L3.89967 6.94457C4.65864 5.0655 6.49674 3.73879 8.64772 3.73879C9.95351 3.73879 11.1415 4.2314 12.046 5.03604L14.4608 2.62125C12.936 1.20021 10.8965 0.323853 8.64772 0.323853C5.36853 0.323853 2.52473 2.17518 1.09473 4.88749Z" fill="#FF3D00"/>
<path d="M8.64921 17.3989C10.8544 17.3989 12.8581 16.555 14.3731 15.1826L11.7308 12.9466C10.8448 13.6204 9.76225 13.9848 8.64921 13.9839C6.42864 13.9839 4.54317 12.568 3.83286 10.592L1.04883 12.7371C2.46176 15.5019 5.33116 17.3989 8.64921 17.3989Z" fill="#4CAF50"/>
<path d="M17.0197 7.18918H16.3321V7.15375H8.64844V10.5687H13.4733C13.1366 11.5148 12.5301 12.3415 11.7287 12.9468L11.73 12.9459L14.3723 15.1818C14.1853 15.3517 17.1858 13.1299 17.1858 8.86122C17.1858 8.28879 17.1269 7.73002 17.0197 7.18918Z" fill="#1976D2"/>
</g>
<defs>
<clipPath id="clip0_19_2031">
<rect x="0.111328" y="0.323853" width="17.075" height="17.075" rx="8.5375" fill="white"/>
</clipPath>
</defs>
</svg>
