<svg width="360" height="90" viewBox="0 0 360 90" fill="none" xmlns="http://www.w3.org/2000/svg">
<path fill-rule="evenodd" clip-rule="evenodd" d="M258.85 5.44238C263.89 6.52583 268.846 7.94178 273.717 9.69017C273.979 14.4658 274.687 19.0676 275.841 23.4955C274.425 23.4955 273.009 23.4955 271.593 23.4955C272.138 19.5477 272.669 15.5654 273.186 11.5486C273.009 11.4601 272.832 11.3716 272.655 11.2831C268.507 13.0031 264.26 14.4191 259.912 15.5309C254.59 14.3172 249.457 12.6359 244.513 10.4866C249.306 8.74201 254.085 7.06063 258.85 5.44238Z" fill="#FDFDFD"/>
<path fill-rule="evenodd" clip-rule="evenodd" d="M252.478 16.0619C254.953 16.9459 257.431 17.8308 259.912 18.7168C262.559 18.056 265.126 17.171 267.611 16.0619C269.463 20.2053 269.109 24.2761 266.549 28.2743C261.363 32.9095 256.761 32.3785 252.743 26.6814C251.806 24.1026 251.187 21.4478 250.885 18.7168C251.021 17.5527 251.552 16.6677 252.478 16.0619ZM254.602 21.9026C254.634 21.6142 254.81 21.4373 255.133 21.3716C258.319 22.7876 261.504 22.7876 264.69 21.3716C264.867 21.8141 265.044 22.2566 265.221 22.6991C263.784 28.0783 260.864 29.2288 256.46 26.1504C255.675 24.7391 255.056 23.3232 254.602 21.9026Z" fill="#FDFDFD"/>
<path fill-rule="evenodd" clip-rule="evenodd" d="M14.0708 22.4335C19.8109 21.8863 22.0233 24.3642 20.7079 29.8671C18.0223 32.4597 15.1904 32.6367 12.2124 30.3981C10.8018 27.2579 11.4213 24.603 14.0708 22.4335Z" fill="#FDFDFD"/>
<path fill-rule="evenodd" clip-rule="evenodd" d="M67.1681 26.6813C69.3175 26.6501 70.9991 27.535 72.2124 29.3362C72.4773 31.6303 72.566 33.9312 72.4779 36.2389C75.8453 36.1506 79.208 36.2391 82.5664 36.5044C86.0076 38.833 86.3618 41.4879 83.6283 44.469C79.9157 44.7342 76.1989 44.8227 72.4779 44.7344C72.2373 50.4531 72.5028 56.1169 73.2743 61.7256C73.7538 62.3633 74.3729 62.8061 75.1327 63.053C78.2007 63.1029 81.2092 63.4571 84.1593 64.115C85.6959 65.6596 86.1382 67.518 85.4867 69.6902C84.8421 70.5127 84.0457 71.1318 83.0973 71.5486C79.3449 71.9941 75.6281 71.8173 71.9469 71.0176C68.4818 69.6764 66.0924 67.287 64.7788 63.8495C63.9175 52.372 63.7407 40.8676 64.2478 29.3362C64.9657 28.1421 65.9389 27.2571 67.1681 26.6813Z" fill="#FDFDFD"/>
<path fill-rule="evenodd" clip-rule="evenodd" d="M39.0266 35.7079C47.4112 34.281 53.5173 37.2899 57.3451 44.7344C58.1862 52.8515 58.3635 60.9934 57.8761 69.1592C55.4012 73.1558 52.7465 73.3332 49.9115 69.6902C49.7345 62.4334 49.5575 55.1771 49.3805 47.9203C48.5841 46.4159 47.4336 45.2654 45.9292 44.4689C42.9574 43.8897 40.1256 44.2437 37.4336 45.5309C36.9238 46.2845 36.4813 47.081 36.1062 47.9203C35.9292 55.1771 35.7522 62.4334 35.5752 69.6902C32.6872 73.2944 30.0323 73.1176 27.6106 69.1592C27.2566 62.6107 27.2566 56.0617 27.6106 49.5132C28.0566 42.0803 31.8619 37.4785 39.0266 35.7079Z" fill="#FDFDFD"/>
<path fill-rule="evenodd" clip-rule="evenodd" d="M178.142 35.7078C181.593 35.8829 183.274 37.6528 183.186 41.0175C182.822 42.3754 182.026 43.3488 180.796 43.9379C177.974 44.1606 175.143 44.5146 172.301 44.9998C171.681 45.6193 171.062 46.2388 170.442 46.8582C169.761 54.6099 169.407 62.3972 169.381 70.2211C166.902 73.0528 164.425 73.0528 161.947 70.2211C161.439 61.3363 161.616 52.4865 162.478 43.6724C166.086 37.8416 171.307 35.1867 178.142 35.7078Z" fill="#FDFDFD"/>
<path fill-rule="evenodd" clip-rule="evenodd" d="M221.681 35.7078C223.328 35.5241 224.833 35.8781 226.195 36.7698C229.34 44.2573 232.171 51.868 234.69 59.6016C237.63 52.6543 240.285 45.5747 242.655 38.3627C245.257 34.9136 247.912 34.9136 250.619 38.3627C250.966 40.0055 250.788 41.5985 250.088 43.1415C246.476 52.3875 242.759 61.5912 238.938 70.7521C237.166 72.2484 235.13 72.6907 232.832 72.0795C231.504 71.4599 230.531 70.4866 229.911 69.1592C226.163 60.0386 222.623 50.8353 219.292 41.5486C218.642 38.9606 219.439 37.0137 221.681 35.7078Z" fill="#FDFDFD"/>
<path fill-rule="evenodd" clip-rule="evenodd" d="M138.319 35.7078C146.384 35.3503 151.782 38.8902 154.513 46.3273C154.867 55.5307 154.867 64.7345 154.513 73.9379C153.517 80.0659 150.066 84.0482 144.159 85.8848C139.574 86.5814 134.973 86.7583 130.354 86.4158C127.087 85.6379 125.936 83.6027 126.903 80.3096C127.522 79.6899 128.141 79.0708 128.761 78.4512C133.572 78.3885 138.35 78.0344 143.097 77.3892C144.496 76.348 145.47 75.0206 146.018 73.4069C146.372 64.9114 146.372 56.4158 146.018 47.9202C144.257 45.0304 141.691 43.88 138.319 44.4689C136.011 44.4261 134.329 45.3995 133.274 47.3892C132.92 51.4601 132.92 55.5307 133.274 59.6016C134.427 62.6144 136.639 63.9418 139.912 63.5839C143.032 65.6038 143.386 68.0818 140.973 71.0176C132.53 72.4968 127.132 69.0455 124.779 60.6636C124.425 55.8848 124.425 51.1061 124.779 46.3273C126.665 39.4133 131.179 35.8734 138.319 35.7078Z" fill="#FDFDFD"/>
<path fill-rule="evenodd" clip-rule="evenodd" d="M15.1328 35.7079C17.2172 35.4672 18.8986 36.1751 20.177 37.8318C20.531 48.4513 20.531 59.0708 20.177 69.6902C17.9555 72.9626 15.4776 73.1394 12.7434 70.2212C12.3894 59.4249 12.3894 48.6283 12.7434 37.8318C13.485 36.998 14.2815 36.2901 15.1328 35.7079Z" fill="#FDFDFD"/>
<path fill-rule="evenodd" clip-rule="evenodd" d="M101.15 36.2389C105.979 35.8341 110.581 36.6305 114.956 38.6283C121.537 44.5548 121.891 50.7495 116.018 57.2124C115.175 57.6701 114.29 58.0242 113.363 58.2743C108.056 58.5398 102.747 58.628 97.4336 58.5398C97.2982 60.66 98.1828 62.1642 100.089 63.0531C105.398 63.2299 110.708 63.4072 116.018 63.5841C119.959 65.9819 120.135 68.6368 116.549 71.5487C93.4423 76.2303 84.5039 67.115 89.7345 44.2035C92.0395 39.3232 95.8444 36.6683 101.15 36.2389ZM99.0266 45.2655C102.571 45.1772 106.111 45.2657 109.646 45.531C112.127 46.9329 112.304 48.5259 110.177 50.3097C105.933 50.5751 101.685 50.6636 97.4336 50.5752C97.0922 48.4868 97.6232 46.7169 99.0266 45.2655Z" fill="#FDFDFD"/>
<path fill-rule="evenodd" clip-rule="evenodd" d="M197.257 36.2389C202.085 35.8341 206.687 36.6305 211.062 38.6283C217.643 44.5548 217.997 50.7495 212.124 57.2124C211.281 57.6701 210.396 58.0242 209.469 58.2743C204.162 58.5398 198.853 58.628 193.54 58.5398C193.404 60.66 194.289 62.1642 196.195 63.0531C201.504 63.2299 206.814 63.4072 212.124 63.5841C216.065 65.9819 216.242 68.6368 212.655 71.5487C189.549 76.2303 180.61 67.115 185.841 44.2035C188.146 39.3232 191.951 36.6683 197.257 36.2389ZM195.133 45.2655C198.677 45.1772 202.217 45.2657 205.752 45.531C208.233 46.9329 208.41 48.5259 206.283 50.3097C202.039 50.5751 197.791 50.6636 193.54 50.5752C193.198 48.4868 193.729 46.7169 195.133 45.2655Z" fill="#FDFDFD"/>
<path fill-rule="evenodd" clip-rule="evenodd" d="M314.602 36.2389C319.43 35.8341 324.032 36.6305 328.407 38.6283C334.014 43.4359 334.987 49.0111 331.327 55.354C330.408 56.478 329.258 57.2745 327.876 57.7434C322.247 58.4883 316.583 58.7538 310.885 58.5398C310.75 60.66 311.634 62.1642 313.54 63.0531C318.673 63.2299 323.805 63.4072 328.938 63.5841C332.948 65.992 333.125 68.6469 329.469 71.5487C307.049 76.0317 298.111 67.0938 302.655 44.7345C305.067 39.5987 309.049 36.7668 314.602 36.2389ZM312.478 45.2655C316.022 45.1772 319.562 45.2657 323.097 45.531C325.698 47.2094 325.698 48.8023 323.097 50.3097C319.031 50.5751 314.96 50.6636 310.885 50.5752C310.544 48.4868 311.075 46.7169 312.478 45.2655Z" fill="#FDFDFD"/>
<path fill-rule="evenodd" clip-rule="evenodd" d="M259.381 35.7079C261.569 35.6953 263.25 36.5803 264.425 38.3628C264.779 48.6282 264.779 58.8939 264.425 69.1592C262.003 73.1176 259.348 73.2944 256.46 69.6902C256.106 59.2475 256.106 48.8053 256.46 38.3628C257.178 37.1686 258.151 36.2837 259.381 35.7079Z" fill="#FDFDFD"/>
<path fill-rule="evenodd" clip-rule="evenodd" d="M280.089 36.2389C284.517 36.1506 288.941 36.2391 293.363 36.5044C296.243 37.5754 297.217 39.6108 296.283 42.6106C295.664 43.2301 295.044 43.8495 294.425 44.469C289.823 44.646 285.221 44.823 280.619 45C278.66 45.3666 278.041 46.517 278.761 48.4513C279.241 49.0892 279.86 49.5317 280.619 49.7787C284.783 50.0111 288.854 50.7191 292.832 51.9026C298.304 55.7947 299.632 60.8389 296.814 67.0354C295.172 69.3865 292.96 70.8908 290.177 71.5486C284.336 71.9028 278.496 71.9028 272.655 71.5486C270.684 70.1671 270.065 68.3086 270.796 65.9734C271.239 64.8228 272.035 64.0263 273.186 63.584C278.496 63.4072 283.805 63.2299 289.115 63.0531C290.59 61.0279 290.059 59.6118 287.522 58.8053C283.089 58.6954 278.841 57.8108 274.779 56.1504C268.777 50.4163 268.6 44.5756 274.248 38.6283C276.134 37.5022 278.081 36.7057 280.089 36.2389Z" fill="#FDFDFD"/>
<path fill-rule="evenodd" clip-rule="evenodd" d="M339.558 62.2566C344.595 61.895 346.807 64.1962 346.195 69.1592C343.94 72.6185 341.108 73.1495 337.699 70.7521C335.644 67.3114 336.263 64.4797 339.558 62.2566Z" fill="#FDFDFD"/>
</svg>
