<svg width="412" height="102" viewBox="0 0 412 102" fill="none" xmlns="http://www.w3.org/2000/svg">
<path fill-rule="evenodd" clip-rule="evenodd" d="M295.982 5.76785C301.746 7.00673 307.412 8.6258 312.982 10.625C313.282 16.0857 314.091 21.3476 315.411 26.4107C313.791 26.4107 312.173 26.4107 310.554 26.4107C311.177 21.8966 311.784 17.343 312.375 12.75C312.173 12.6488 311.97 12.5476 311.768 12.4464C307.025 14.4132 302.168 16.0323 297.196 17.3036C291.111 15.9158 285.242 13.9932 279.589 11.5357C285.07 9.54082 290.534 7.61824 295.982 5.76785Z" fill="#233942"/>
<path fill-rule="evenodd" clip-rule="evenodd" d="M288.696 17.9107C291.526 18.9215 294.36 19.9334 297.196 20.9464C300.224 20.1908 303.159 19.179 306 17.9107C308.118 22.6485 307.713 27.3033 304.786 31.875C298.856 37.1751 293.594 36.568 289 30.0536C287.928 27.1049 287.22 24.0692 286.875 20.9464C287.031 19.6153 287.638 18.6034 288.696 17.9107ZM291.125 24.5893C291.161 24.2595 291.364 24.0572 291.732 23.9821C295.375 25.6012 299.018 25.6012 302.661 23.9821C302.863 24.4881 303.066 24.9941 303.268 25.5C301.625 31.651 298.286 32.9665 293.25 29.4464C292.353 27.8327 291.644 26.2137 291.125 24.5893Z" fill="#253941"/>
<path fill-rule="evenodd" clip-rule="evenodd" d="M16.0893 25.1964C22.6529 24.5707 25.1826 27.404 23.6786 33.6964C20.6077 36.6609 17.3696 36.8632 13.9643 34.3035C12.3513 30.7129 13.0597 27.6771 16.0893 25.1964Z" fill="#223743"/>
<path fill-rule="evenodd" clip-rule="evenodd" d="M76.8036 30.0536C79.2613 30.0178 81.1841 31.0298 82.5714 33.0893C82.8744 35.7125 82.9758 38.3435 82.875 40.9822C86.7255 40.8813 90.5705 40.9825 94.4107 41.2857C98.3456 43.9484 98.7506 46.9841 95.625 50.3929C91.3799 50.6962 87.1299 50.7974 82.875 50.6965C82.6 57.2355 82.9035 63.7118 83.7857 70.125C84.334 70.8542 85.0419 71.3606 85.9107 71.6429C89.4188 71.7 92.8589 72.1049 96.2321 72.8572C97.9892 74.6234 98.495 76.7484 97.75 79.2322C97.0129 80.1726 96.1022 80.8806 95.0179 81.3572C90.7272 81.8666 86.4772 81.6644 82.2679 80.75C78.3056 79.2164 75.5735 76.4842 74.0714 72.5536C73.0866 59.4297 72.8845 46.2749 73.4643 33.0893C74.2851 31.7239 75.398 30.712 76.8036 30.0536Z" fill="#213640"/>
<path fill-rule="evenodd" clip-rule="evenodd" d="M44.625 40.3751C54.2125 38.7435 61.1945 42.184 65.5714 50.6965C66.5332 59.978 66.7359 69.2878 66.1786 78.6251C63.3487 83.195 60.3131 83.3978 57.0714 79.2322C56.8691 70.9344 56.6667 62.6372 56.4643 54.3393C55.5536 52.6191 54.2381 51.3036 52.5179 50.3929C49.1198 49.7306 45.8817 50.1354 42.8036 51.6072C42.2207 52.469 41.7147 53.3797 41.2857 54.3393C41.0834 62.6372 40.8809 70.9344 40.6786 79.2322C37.3762 83.3535 34.3405 83.1513 31.5714 78.6251C31.1667 71.1372 31.1667 63.6487 31.5714 56.1608C32.0814 47.6616 36.4326 42.3997 44.625 40.3751Z" fill="#243842"/>
<path fill-rule="evenodd" clip-rule="evenodd" d="M203.696 40.375C207.643 40.5751 209.565 42.5989 209.464 46.4464C209.048 47.999 208.138 49.1121 206.732 49.7857C203.505 50.0404 200.267 50.4452 197.018 51C196.309 51.7083 195.601 52.4166 194.893 53.125C194.113 61.9886 193.709 70.893 193.679 79.8392C190.845 83.0771 188.012 83.0771 185.179 79.8392C184.598 69.6799 184.8 59.5606 185.786 49.4821C189.912 42.8148 195.882 39.7791 203.696 40.375Z" fill="#213641"/>
<path fill-rule="evenodd" clip-rule="evenodd" d="M253.482 40.375C255.365 40.165 257.086 40.5697 258.643 41.5893C262.239 50.1509 265.477 58.8534 268.357 67.6965C271.719 59.7525 274.755 51.6573 277.464 43.4107C280.44 39.4669 283.476 39.4669 286.571 43.4107C286.967 45.2892 286.764 47.1107 285.964 48.875C281.833 59.4474 277.583 69.9714 273.214 80.4465C271.188 82.1574 268.86 82.6631 266.232 81.9643C264.714 81.2558 263.601 80.1429 262.893 78.625C258.607 68.1961 254.559 57.6726 250.75 47.0536C250.007 44.0944 250.918 41.8682 253.482 40.375Z" fill="#223741"/>
<path fill-rule="evenodd" clip-rule="evenodd" d="M158.161 40.375C167.383 39.9662 173.556 44.0138 176.679 52.5178C177.084 63.0414 177.084 73.5656 176.679 84.0892C175.54 91.0963 171.593 95.6498 164.839 97.75C159.597 98.5465 154.335 98.7487 149.054 98.3571C145.318 97.4676 144.002 95.1405 145.107 91.375C145.816 90.6664 146.524 89.9585 147.232 89.25C152.733 89.1783 158.197 88.7733 163.625 88.0357C165.225 86.8451 166.338 85.3272 166.964 83.4821C167.369 73.7678 167.369 64.0535 166.964 54.3392C164.951 51.0349 162.017 49.7194 158.161 50.3928C155.522 50.3439 153.599 51.457 152.393 53.7321C151.988 58.3869 151.988 63.0414 152.393 67.6964C153.71 71.1413 156.24 72.6592 159.982 72.25C163.55 74.5595 163.955 77.3931 161.196 80.75C151.542 82.4415 145.369 78.495 142.679 68.9107C142.274 63.4464 142.274 57.9821 142.679 52.5178C144.836 44.612 149.996 40.5643 158.161 40.375Z" fill="#233741"/>
<path fill-rule="evenodd" clip-rule="evenodd" d="M17.3036 40.3751C19.687 40.0998 21.6096 40.9093 23.0714 42.8036C23.4762 54.9465 23.4762 67.0893 23.0714 79.2322C20.5312 82.974 17.6979 83.1762 14.5714 79.8393C14.1667 67.4943 14.1667 55.1489 14.5714 42.8036C15.4195 41.8502 16.3302 41.0407 17.3036 40.3751Z" fill="#1F353F"/>
<path fill-rule="evenodd" clip-rule="evenodd" d="M115.661 40.9822C121.181 40.5193 126.444 41.43 131.446 43.7143C138.971 50.491 139.376 57.5744 132.661 64.9643C131.697 65.4877 130.685 65.8927 129.625 66.1786C123.557 66.4822 117.486 66.583 111.411 66.4822C111.256 68.9065 112.267 70.6266 114.446 71.6429C120.518 71.8451 126.589 72.0479 132.661 72.2501C137.167 74.9919 137.369 78.0276 133.268 81.3572C106.847 86.7104 96.6262 76.2876 102.607 50.0893C105.243 44.5089 109.594 41.4732 115.661 40.9822ZM113.232 51.3036C117.285 51.2027 121.333 51.3039 125.375 51.6072C128.212 53.2103 128.414 55.0317 125.982 57.0715C121.129 57.3749 116.272 57.4761 111.411 57.3751C111.02 54.9871 111.627 52.9633 113.232 51.3036Z" fill="#223741"/>
<path fill-rule="evenodd" clip-rule="evenodd" d="M225.554 40.9822C231.074 40.5193 236.336 41.43 241.339 43.7143C248.864 50.491 249.269 57.5744 242.554 64.9643C241.59 65.4877 240.578 65.8927 239.518 66.1786C233.45 66.4822 227.379 66.583 221.304 66.4822C221.149 68.9065 222.16 70.6266 224.339 71.6429C230.411 71.8451 236.482 72.0479 242.554 72.2501C247.06 74.9919 247.262 78.0276 243.161 81.3572C216.74 86.7104 206.519 76.2876 212.5 50.0893C215.136 44.5089 219.486 41.4732 225.554 40.9822ZM223.125 51.3036C227.178 51.2027 231.226 51.3039 235.268 51.6072C238.104 53.2103 238.307 55.0317 235.875 57.0715C231.022 57.3749 226.165 57.4761 221.304 57.3751C220.913 54.9871 221.52 52.9633 223.125 51.3036Z" fill="#223741"/>
<path fill-rule="evenodd" clip-rule="evenodd" d="M359.732 40.9822C365.253 40.5193 370.515 41.43 375.518 43.7143C381.929 49.2115 383.042 55.5865 378.857 62.8393C377.806 64.1247 376.491 65.0354 374.911 65.5715C368.474 66.4233 361.997 66.7269 355.482 66.4822C355.327 68.9065 356.339 70.6266 358.518 71.6429C364.387 71.8451 370.256 72.0479 376.125 72.2501C380.71 75.0035 380.912 78.0392 376.732 81.3572C351.096 86.4833 340.876 76.2633 346.071 50.6965C348.829 44.8239 353.383 41.5858 359.732 40.9822ZM357.304 51.3036C361.356 51.2027 365.404 51.3039 369.446 51.6072C372.42 53.5264 372.42 55.3478 369.446 57.0715C364.796 57.3749 360.141 57.4761 355.482 57.3751C355.092 54.9871 355.699 52.9633 357.304 51.3036Z" fill="#223742"/>
<path fill-rule="evenodd" clip-rule="evenodd" d="M296.589 40.375C299.092 40.3606 301.014 41.3725 302.357 43.4107C302.762 55.1488 302.762 66.8871 302.357 78.625C299.588 83.1512 296.552 83.3534 293.25 79.2321C292.845 67.2915 292.845 55.3512 293.25 43.4107C294.071 42.0452 295.184 41.0334 296.589 40.375Z" fill="#233842"/>
<path fill-rule="evenodd" clip-rule="evenodd" d="M320.268 40.9822C325.331 40.8812 330.391 40.9824 335.446 41.2858C338.74 42.5104 339.853 44.8377 338.786 48.2679C338.077 48.9763 337.369 49.6845 336.661 50.3929C331.399 50.5953 326.137 50.7977 320.875 51C318.635 51.4192 317.926 52.7347 318.75 54.9465C319.298 55.6759 320.006 56.1819 320.875 56.4643C325.636 56.73 330.291 57.5396 334.839 58.8929C341.097 63.3433 342.614 69.1111 339.393 76.1965C337.516 78.8849 334.986 80.6049 331.804 81.3572C325.125 81.7621 318.446 81.7621 311.768 81.3572C309.514 79.7774 308.806 77.6524 309.643 74.9822C310.149 73.6665 311.059 72.7558 312.375 72.25C318.446 72.0479 324.518 71.8451 330.589 71.6429C332.275 69.3273 331.668 67.708 328.768 66.7858C323.698 66.6601 318.841 65.6486 314.196 63.75C307.334 57.1933 307.132 50.5148 313.589 43.7143C315.746 42.4267 317.973 41.516 320.268 40.9822Z" fill="#233741"/>
<path fill-rule="evenodd" clip-rule="evenodd" d="M388.268 70.7322C394.028 70.3187 396.558 72.9501 395.857 78.625C393.279 82.5806 390.041 83.1877 386.143 80.4464C383.793 76.5122 384.501 73.2743 388.268 70.7322Z" fill="#223943"/>
</svg>
