<svg width="100" height="100" viewBox="0 0 100 100" fill="none" xmlns="http://www.w3.org/2000/svg">
<rect width="100" height="100" rx="50" fill="white"/>
<path fill-rule="evenodd" clip-rule="evenodd" d="M47.3929 11.7947C53.1565 13.0336 58.8229 14.6527 64.3929 16.6519C64.6928 22.1126 65.5021 27.3745 66.8214 32.4376C65.2022 32.4376 63.5835 32.4376 61.9643 32.4376C62.5878 27.9235 63.195 23.3699 63.7857 18.7769C63.5835 18.6756 63.3807 18.5745 63.1786 18.4733C58.4362 20.4401 53.579 22.0591 48.6071 23.3304C42.5218 21.9427 36.6531 20.0201 31 17.5626C36.4807 15.5677 41.945 13.6451 47.3929 11.7947Z" fill="#233942"/>
<path fill-rule="evenodd" clip-rule="evenodd" d="M40.1071 23.9373C42.937 24.9481 45.7706 25.96 48.6071 26.973C51.635 26.2174 54.5693 25.2055 57.4107 23.9373C59.529 28.6751 59.1241 33.3298 56.1964 37.9016C50.2671 43.2017 45.005 42.5945 40.4107 36.0801C39.3385 33.1315 38.6306 30.0958 38.2857 26.973C38.4417 25.6419 39.0489 24.63 40.1071 23.9373ZM42.5357 30.6159C42.5721 30.2861 42.7743 30.0838 43.1428 30.0087C46.7857 31.6278 50.4286 31.6278 54.0714 30.0087C54.2736 30.5146 54.4764 31.0206 54.6786 31.5266C53.0356 37.6775 49.6963 38.993 44.6607 35.473C43.7633 33.8593 43.0548 32.2403 42.5357 30.6159Z" fill="#253941"/>
<path fill-rule="evenodd" clip-rule="evenodd" d="M48 46.4018C50.5026 46.3874 52.4249 47.3993 53.7679 49.4375C54.1728 61.1756 54.1728 72.9139 53.7679 84.6518C50.9987 89.178 47.963 89.3802 44.6607 85.2589C44.2558 73.3183 44.2558 61.378 44.6607 49.4375C45.4816 48.072 46.5945 47.0602 48 46.4018Z" fill="#233842"/>
</svg>
