<svg width="285" height="72" viewBox="0 0 285 72" fill="none" xmlns="http://www.w3.org/2000/svg">
<path fill-rule="evenodd" clip-rule="evenodd" d="M204.754 5.31006C208.734 6.16548 212.647 7.28341 216.493 8.66381C216.7 12.4343 217.259 16.0676 218.169 19.5635C217.051 19.5635 215.934 19.5635 214.816 19.5635C215.246 16.4466 215.665 13.3025 216.073 10.1311C215.934 10.0612 215.794 9.99135 215.654 9.92147C212.38 11.2795 209.026 12.3974 205.593 13.2752C201.391 12.317 197.339 10.9895 193.436 9.29264C197.22 7.91521 200.993 6.58771 204.754 5.31006Z" fill="#233942"/>
<path fill-rule="evenodd" clip-rule="evenodd" d="M199.723 13.6945C201.677 14.3924 203.634 15.0911 205.593 15.7906C207.683 15.2688 209.709 14.5702 211.671 13.6945C213.134 16.9658 212.854 20.1798 210.833 23.3365C206.739 26.9961 203.105 26.5769 199.933 22.0788C199.193 20.0429 198.704 17.9468 198.466 15.7906C198.574 14.8715 198.993 14.1727 199.723 13.6945ZM201.4 18.3059C201.426 18.0782 201.565 17.9385 201.82 17.8867C204.335 19.0046 206.85 19.0046 209.366 17.8867C209.505 18.236 209.645 18.5854 209.785 18.9347C208.65 23.1818 206.345 24.0901 202.868 21.6596C202.248 20.5454 201.759 19.4275 201.4 18.3059Z" fill="#253941"/>
<path fill-rule="evenodd" clip-rule="evenodd" d="M11.4949 18.7251C16.0269 18.2931 17.7737 20.2495 16.7352 24.5942C14.6148 26.6411 12.3789 26.7808 10.0277 25.0134C8.91395 22.5341 9.40306 20.438 11.4949 18.7251Z" fill="#223743"/>
<path fill-rule="evenodd" clip-rule="evenodd" d="M53.416 22.0789C55.113 22.0542 56.4407 22.7529 57.3986 24.175C57.6078 25.9863 57.6778 27.8029 57.6082 29.6248C60.2669 29.5552 62.9218 29.625 65.5734 29.8344C68.2903 31.673 68.57 33.7691 66.4118 36.1227C63.4806 36.3322 60.5461 36.4021 57.6082 36.3323C57.4183 40.8474 57.6279 45.3191 58.237 49.7474C58.6156 50.2508 59.1044 50.6005 59.7043 50.7954C62.1266 50.8348 64.5018 51.1144 66.831 51.6338C68.0443 52.8533 68.3935 54.3206 67.8791 56.0356C67.3701 56.685 66.7413 57.1738 65.9926 57.5029C63.03 57.8546 60.0954 57.715 57.189 57.0837C54.4532 56.0247 52.5667 54.1383 51.5295 51.4242C50.8496 42.3624 50.71 33.2794 51.1103 24.175C51.6771 23.2322 52.4455 22.5335 53.416 22.0789Z" fill="#213640"/>
<path fill-rule="evenodd" clip-rule="evenodd" d="M31.1965 29.2056C37.8164 28.0791 42.6374 30.4547 45.6595 36.3323C46.3236 42.741 46.4636 49.1693 46.0787 55.6164C44.1248 58.7719 42.0288 58.9119 39.7905 56.0356C39.6507 50.3062 39.511 44.5771 39.3712 38.8477C38.7424 37.6599 37.8341 36.7516 36.6463 36.1227C34.3 35.6654 32.0642 35.9449 29.9388 36.9612C29.5363 37.5562 29.1869 38.185 28.8908 38.8477C28.751 44.5771 28.6113 50.3062 28.4715 56.0356C26.1913 58.8813 24.0952 58.7417 22.1833 55.6164C21.9038 50.4462 21.9038 45.2755 22.1833 40.1053C22.5354 34.2368 25.5398 30.6036 31.1965 29.2056Z" fill="#243842"/>
<path fill-rule="evenodd" clip-rule="evenodd" d="M141.033 29.2055C143.757 29.3438 145.085 30.7411 145.015 33.3977C144.728 34.4698 144.099 35.2384 143.129 35.7034C140.9 35.8793 138.665 36.1588 136.421 36.5419C135.932 37.031 135.443 37.52 134.954 38.0091C134.416 44.1293 134.136 50.2776 134.115 56.4548C132.159 58.6905 130.203 58.6905 128.246 56.4548C127.846 49.44 127.985 42.4528 128.666 35.4938C131.515 30.8902 135.637 28.7941 141.033 29.2055Z" fill="#213641"/>
<path fill-rule="evenodd" clip-rule="evenodd" d="M175.409 29.2056C176.709 29.0606 177.897 29.3401 178.972 30.0441C181.455 35.9557 183.691 41.9645 185.68 48.0705C188.001 42.5853 190.097 36.9958 191.968 31.3017C194.023 28.5786 196.119 28.5786 198.256 31.3017C198.53 32.5988 198.39 33.8564 197.837 35.0747C194.985 42.3747 192.05 49.6413 189.034 56.8741C187.634 58.0555 186.027 58.4047 184.213 57.9221C183.165 57.4329 182.396 56.6645 181.907 55.6164C178.948 48.4155 176.153 41.1492 173.523 33.817C173.009 31.7738 173.638 30.2366 175.409 29.2056Z" fill="#223741"/>
<path fill-rule="evenodd" clip-rule="evenodd" d="M109.592 29.2056C115.96 28.9233 120.222 31.7181 122.378 37.59C122.658 44.8563 122.658 52.123 122.378 59.3894C121.592 64.2276 118.867 67.3717 114.204 68.8218C110.584 69.3718 106.951 69.5114 103.304 69.241C100.724 68.6269 99.816 67.02 100.579 64.42C101.068 63.9308 101.557 63.442 102.046 62.9527C105.844 62.9033 109.617 62.6236 113.365 62.1143C114.47 61.2922 115.239 60.2441 115.671 58.9701C115.95 52.2626 115.95 45.5551 115.671 38.8476C114.281 36.5661 112.255 35.6577 109.592 36.1227C107.77 36.0889 106.443 36.8575 105.61 38.4284C105.33 41.6424 105.33 44.8563 105.61 48.0704C106.519 50.4491 108.266 51.4971 110.85 51.2146C113.314 52.8093 113.593 54.7658 111.688 57.0837C105.022 58.2516 100.76 55.5267 98.9021 48.9089C98.6225 45.1359 98.6225 41.3629 98.9021 37.59C100.392 32.1311 103.955 29.3363 109.592 29.2056Z" fill="#233741"/>
<path fill-rule="evenodd" clip-rule="evenodd" d="M12.3324 29.2056C13.9782 29.0155 15.3057 29.5745 16.315 30.8825C16.5945 39.2669 16.5945 47.6513 16.315 56.0356C14.561 58.6193 12.6047 58.7589 10.4459 56.4549C10.1665 47.9309 10.1665 39.4066 10.4459 30.8825C11.0315 30.2242 11.6603 29.6652 12.3324 29.2056Z" fill="#1F353F"/>
<path fill-rule="evenodd" clip-rule="evenodd" d="M80.2455 29.6249C84.0574 29.3052 87.6908 29.934 91.1452 31.5114C96.341 36.1905 96.6206 41.0814 91.9836 46.184C91.3183 46.5454 90.6195 46.825 89.8875 47.0225C85.6978 47.2321 81.5057 47.3017 77.3109 47.2321C77.204 48.906 77.9025 50.0937 79.407 50.7954C83.5992 50.935 87.7914 51.0751 91.9836 51.2147C95.0951 53.1078 95.2347 55.2039 92.4028 57.5029C74.1597 61.1992 67.1025 54.0025 71.2323 35.9132C73.0521 32.06 76.0562 29.9639 80.2455 29.6249ZM78.5686 36.7516C81.3669 36.6819 84.1618 36.7518 86.953 36.9612C88.9116 38.0681 89.0512 39.3258 87.3722 40.7342C84.0214 40.9437 80.6676 41.0135 77.3109 40.9438C77.0414 39.295 77.4606 37.8976 78.5686 36.7516Z" fill="#223741"/>
<path fill-rule="evenodd" clip-rule="evenodd" d="M156.124 29.6249C159.936 29.3052 163.57 29.934 167.024 31.5114C172.22 36.1905 172.5 41.0814 167.863 46.184C167.197 46.5454 166.498 46.825 165.766 47.0225C161.577 47.2321 157.385 47.3017 153.19 47.2321C153.083 48.906 153.781 50.0937 155.286 50.7954C159.478 50.935 163.67 51.0751 167.863 51.2147C170.974 53.1078 171.114 55.2039 168.282 57.5029C150.039 61.1992 142.981 54.0025 147.111 35.9132C148.931 32.06 151.935 29.9639 156.124 29.6249ZM154.448 36.7516C157.246 36.6819 160.041 36.7518 162.832 36.9612C164.79 38.0681 164.93 39.3258 163.251 40.7342C159.9 40.9437 156.547 41.0135 153.19 40.9438C152.92 39.295 153.34 37.8976 154.448 36.7516Z" fill="#223741"/>
<path fill-rule="evenodd" clip-rule="evenodd" d="M248.772 29.6249C252.584 29.3052 256.217 29.934 259.671 31.5114C264.098 35.307 264.867 39.7088 261.977 44.7168C261.252 45.6042 260.343 46.2331 259.252 46.6032C254.808 47.1914 250.336 47.401 245.837 47.2321C245.73 48.906 246.429 50.0937 247.933 50.7954C251.986 50.935 256.038 51.0751 260.091 51.2147C263.257 53.1158 263.396 55.2119 260.51 57.5029C242.809 61.0424 235.752 53.9857 239.339 36.3324C241.243 32.2775 244.388 30.0417 248.772 29.6249ZM247.095 36.7516C249.893 36.6819 252.688 36.7518 255.479 36.9612C257.532 38.2864 257.532 39.544 255.479 40.7342C252.268 40.9437 249.054 41.0135 245.837 40.9438C245.568 39.295 245.987 37.8976 247.095 36.7516Z" fill="#223742"/>
<path fill-rule="evenodd" clip-rule="evenodd" d="M205.173 29.2055C206.901 29.1956 208.228 29.8943 209.155 31.3016C209.435 39.4065 209.435 47.5116 209.155 55.6164C207.243 58.7416 205.147 58.8812 202.867 56.0356C202.587 47.7908 202.587 39.5463 202.867 31.3016C203.434 30.3588 204.202 29.6602 205.173 29.2055Z" fill="#233842"/>
<path fill-rule="evenodd" clip-rule="evenodd" d="M221.524 29.6248C225.02 29.555 228.514 29.6249 232.004 29.8344C234.278 30.6799 235.047 32.2869 234.31 34.6554C233.821 35.1445 233.332 35.6336 232.843 36.1227C229.209 36.2624 225.576 36.4022 221.943 36.5419C220.396 36.8313 219.907 37.7396 220.476 39.2668C220.854 39.7705 221.343 40.1198 221.943 40.3149C225.231 40.4983 228.444 41.0573 231.585 41.9917C235.906 45.0646 236.954 49.0472 234.729 53.9395C233.433 55.7958 231.686 56.9834 229.489 57.5028C224.878 57.7825 220.266 57.7825 215.655 57.5028C214.099 56.412 213.61 54.9448 214.188 53.101C214.537 52.1926 215.166 51.5638 216.074 51.2146C220.266 51.075 224.458 50.9349 228.651 50.7953C229.815 49.1964 229.396 48.0784 227.393 47.4416C223.892 47.3548 220.539 46.6564 217.332 45.3455C212.593 40.8182 212.454 36.2068 216.912 31.5113C218.402 30.6222 219.939 29.9933 221.524 29.6248Z" fill="#233741"/>
<path fill-rule="evenodd" clip-rule="evenodd" d="M268.476 50.1665C272.453 49.881 274.2 51.6979 273.716 55.6164C271.936 58.3476 269.7 58.7668 267.009 56.874C265.386 54.1575 265.875 51.9218 268.476 50.1665Z" fill="#223943"/>
<path d="M84.9033 7.05742C84.8427 6.51954 84.5927 6.10287 84.1533 5.80742C83.7139 5.50817 83.1609 5.35855 82.4942 5.35855C82.017 5.35855 81.6041 5.43431 81.2556 5.58583C80.9071 5.73355 80.6363 5.9381 80.4431 6.19946C80.2537 6.45704 80.159 6.7506 80.159 7.08014C80.159 7.35666 80.2234 7.5953 80.3522 7.79605C80.4848 7.99681 80.6571 8.16537 80.8692 8.30174C81.0851 8.43431 81.3162 8.54605 81.5624 8.63696C81.8086 8.72408 82.0454 8.79605 82.2726 8.85287L83.409 9.14833C83.7802 9.23924 84.1609 9.36234 84.551 9.51764C84.9412 9.67295 85.3029 9.87749 85.6363 10.1313C85.9696 10.3851 86.2385 10.6995 86.4431 11.0745C86.6514 11.4495 86.7556 11.8983 86.7556 12.4211C86.7556 13.0801 86.5851 13.6654 86.2442 14.1767C85.9071 14.6881 85.4166 15.0915 84.7726 15.387C84.1325 15.6824 83.3579 15.8301 82.4488 15.8301C81.5776 15.8301 80.8238 15.6919 80.1874 15.4154C79.551 15.1389 79.0529 14.7468 78.6931 14.2392C78.3332 13.7279 78.1344 13.1218 78.0965 12.4211H79.8579C79.892 12.8415 80.0283 13.1919 80.267 13.4722C80.5094 13.7487 80.8181 13.9551 81.1931 14.0915C81.5719 14.2241 81.9867 14.2904 82.4374 14.2904C82.9336 14.2904 83.3749 14.2127 83.7613 14.0574C84.1514 13.8983 84.4582 13.6786 84.6817 13.3983C84.9052 13.1142 85.017 12.7828 85.017 12.404C85.017 12.0593 84.9185 11.7771 84.7215 11.5574C84.5283 11.3377 84.2651 11.1559 83.9317 11.012C83.6022 10.868 83.2291 10.7411 82.8124 10.6313L81.4374 10.2563C80.5056 10.0025 79.767 9.62939 79.2215 9.13696C78.6798 8.64454 78.409 7.99302 78.409 7.18242C78.409 6.51196 78.5908 5.92673 78.9545 5.42673C79.3181 4.92673 79.8105 4.53848 80.4317 4.26196C81.0529 3.98166 81.7537 3.84151 82.534 3.84151C83.3219 3.84151 84.017 3.97977 84.6192 4.25628C85.2253 4.5328 85.7026 4.91348 86.051 5.39833C86.3995 5.87939 86.5814 6.43242 86.5965 7.05742H84.9033ZM90.6093 4.0006V15.637H88.8536V4.0006H90.6093ZM101.041 7.67674C100.931 7.33204 100.784 7.02333 100.598 6.7506C100.416 6.47408 100.198 6.23924 99.9445 6.04605C99.6907 5.84908 99.401 5.69946 99.0752 5.59719C98.7532 5.49492 98.3991 5.44378 98.0127 5.44378C97.3574 5.44378 96.7665 5.61234 96.24 5.94946C95.7135 6.28658 95.2968 6.7809 94.99 7.43242C94.6869 8.08014 94.5354 8.8737 94.5354 9.8131C94.5354 10.7563 94.6888 11.5536 94.9957 12.2051C95.3025 12.8567 95.7229 13.351 96.257 13.6881C96.7911 14.0252 97.3991 14.1938 98.0809 14.1938C98.7135 14.1938 99.2646 14.065 99.7343 13.8074C100.208 13.5498 100.573 13.1862 100.831 12.7165C101.092 12.243 101.223 11.6862 101.223 11.0461L101.677 11.1313H98.3479V9.68242H102.922V11.0063C102.922 11.9836 102.713 12.832 102.297 13.5517C101.884 14.2676 101.312 14.8207 100.581 15.2108C99.8536 15.601 99.0203 15.7961 98.0809 15.7961C97.0278 15.7961 96.1036 15.5536 95.3082 15.0688C94.5165 14.5839 93.8991 13.8964 93.4559 13.0063C93.0127 12.1123 92.7911 11.0517 92.7911 9.82446C92.7911 8.89643 92.9199 8.0631 93.1775 7.32446C93.435 6.58583 93.7968 5.95893 94.2627 5.44378C94.7324 4.92484 95.2835 4.52901 95.9161 4.25628C96.5525 3.97977 97.2475 3.84151 98.0013 3.84151C98.6301 3.84151 99.2153 3.93431 99.757 4.11992C100.302 4.30552 100.787 4.56878 101.212 4.90969C101.64 5.2506 101.994 5.6559 102.274 6.1256C102.554 6.59151 102.744 7.10855 102.842 7.67674H101.041ZM114.543 4.0006V15.637H112.929L107.014 7.10287H106.906V15.637H105.15V4.0006H106.775L112.696 12.5461H112.804V4.0006H114.543ZM123.094 4.0006V15.637H121.338V4.0006H123.094ZM135.043 4.0006V15.637H133.429L127.514 7.10287H127.406V15.637H125.65V4.0006H127.275L133.196 12.5461H133.304V4.0006H135.043ZM141.264 5.51196V4.0006H150.27V5.51196H146.639V15.637H144.889V5.51196H141.264ZM161.868 9.81878C161.868 11.0612 161.641 12.1294 161.186 13.0233C160.731 13.9135 160.108 14.5991 159.317 15.0801C158.529 15.5574 157.633 15.7961 156.629 15.7961C155.622 15.7961 154.722 15.5574 153.93 15.0801C153.142 14.5991 152.521 13.9116 152.067 13.0176C151.612 12.1237 151.385 11.0574 151.385 9.81878C151.385 8.57636 151.612 7.51007 152.067 6.61992C152.521 5.72598 153.142 5.04037 153.93 4.5631C154.722 4.08204 155.622 3.84151 156.629 3.84151C157.633 3.84151 158.529 4.08204 159.317 4.5631C160.108 5.04037 160.731 5.72598 161.186 6.61992C161.641 7.51007 161.868 8.57636 161.868 9.81878ZM160.129 9.81878C160.129 8.87181 159.976 8.07446 159.669 7.42673C159.366 6.77522 158.949 6.2828 158.419 5.94946C157.892 5.61234 157.296 5.44378 156.629 5.44378C155.959 5.44378 155.36 5.61234 154.834 5.94946C154.307 6.2828 153.891 6.77522 153.584 7.42673C153.281 8.07446 153.129 8.87181 153.129 9.81878C153.129 10.7658 153.281 11.565 153.584 12.2165C153.891 12.8642 154.307 13.3567 154.834 13.6938C155.36 14.0271 155.959 14.1938 156.629 14.1938C157.296 14.1938 157.892 14.0271 158.419 13.6938C158.949 13.3567 159.366 12.8642 159.669 12.2165C159.976 11.565 160.129 10.7658 160.129 9.81878Z" fill="#20353F"/>
</svg>
