<svg width="285" height="73" viewBox="0 0 285 73" fill="none" xmlns="http://www.w3.org/2000/svg">
<path fill-rule="evenodd" clip-rule="evenodd" d="M204.754 5.58887C208.734 6.44428 212.647 7.56222 216.493 8.94262C216.7 12.7131 217.259 16.3464 218.169 19.8423C217.051 19.8423 215.934 19.8423 214.816 19.8423C215.246 16.7254 215.665 13.5813 216.073 10.4099C215.934 10.34 215.794 10.2702 215.654 10.2003C212.38 11.5583 209.026 12.6762 205.593 13.554C201.391 12.5958 197.339 11.2683 193.436 9.57145C197.22 8.19402 200.993 6.86652 204.754 5.58887Z" fill="#233942"/>
<path fill-rule="evenodd" clip-rule="evenodd" d="M199.724 13.9733C201.678 14.6712 203.635 15.3699 205.594 16.0694C207.684 15.5476 209.71 14.849 211.672 13.9733C213.135 17.2446 212.855 20.4586 210.834 23.6153C206.74 27.2749 203.106 26.8557 199.934 22.3577C199.194 20.3217 198.705 18.2256 198.467 16.0694C198.575 15.1503 198.994 14.4516 199.724 13.9733ZM201.401 18.5847C201.426 18.357 201.566 18.2173 201.821 18.1655C204.336 19.2834 206.851 19.2834 209.366 18.1655C209.506 18.5148 209.646 18.8642 209.786 19.2135C208.651 23.4606 206.346 24.3689 202.869 21.9384C202.249 20.8242 201.76 19.7063 201.401 18.5847Z" fill="#253941"/>
<path fill-rule="evenodd" clip-rule="evenodd" d="M11.493 19.0039C16.025 18.5719 17.7717 20.5283 16.7332 24.873C14.6128 26.9199 12.377 27.0596 10.0257 25.2922C8.912 22.8129 9.4011 20.7168 11.493 19.0039Z" fill="#223743"/>
<path fill-rule="evenodd" clip-rule="evenodd" d="M53.417 22.3577C55.114 22.333 56.4417 23.0317 57.3996 24.4538C57.6088 26.2651 57.6788 28.0817 57.6092 29.9036C60.2679 29.834 62.9228 29.9038 65.5743 30.1132C68.2913 31.9518 68.5709 34.0479 66.4128 36.4015C63.4816 36.611 60.5471 36.6809 57.6092 36.6111C57.4193 41.1262 57.6289 45.5979 58.238 50.0262C58.6166 50.5296 59.1054 50.8793 59.7053 51.0742C62.1275 51.1136 64.5028 51.3932 66.832 51.9126C68.0452 53.1322 68.3944 54.5994 67.8801 56.3144C67.3711 56.9638 66.7423 57.4526 65.9936 57.7817C63.0309 58.1334 60.0964 57.9938 57.19 57.3625C54.4541 56.3036 52.5677 54.4171 51.5305 51.703C50.8505 42.6412 50.7109 33.5582 51.1113 24.4538C51.6781 23.511 52.4465 22.8123 53.417 22.3577Z" fill="#213640"/>
<path fill-rule="evenodd" clip-rule="evenodd" d="M31.1974 29.4844C37.8174 28.3579 42.6384 30.7335 45.6605 36.6112C46.3246 43.0198 46.4646 49.4481 46.0797 55.8952C44.1257 59.0507 42.0297 59.1907 39.7914 56.3145C39.6517 50.585 39.5119 44.8559 39.3722 39.1265C38.7434 37.9387 37.8351 37.0304 36.6473 36.4015C34.301 35.9442 32.0651 36.2237 29.9398 37.24C29.5373 37.835 29.1879 38.4638 28.8917 39.1265C28.752 44.8559 28.6122 50.585 28.4725 56.3145C26.1923 59.1601 24.0962 59.0205 22.1842 55.8952C21.9047 50.725 21.9047 45.5544 22.1842 40.3841C22.5364 34.5156 25.5408 30.8824 31.1974 29.4844Z" fill="#243842"/>
<path fill-rule="evenodd" clip-rule="evenodd" d="M141.033 29.4843C143.757 29.6226 145.085 31.0199 145.015 33.6765C144.728 34.7486 144.099 35.5172 143.129 35.9822C140.9 36.1581 138.665 36.4376 136.421 36.8207C135.932 37.3098 135.443 37.7988 134.954 38.2879C134.416 44.4081 134.136 50.5564 134.115 56.7336C132.159 58.9693 130.203 58.9693 128.246 56.7336C127.846 49.7188 127.985 42.7316 128.666 35.7726C131.515 31.169 135.637 29.0729 141.033 29.4843Z" fill="#213641"/>
<path fill-rule="evenodd" clip-rule="evenodd" d="M175.409 29.4844C176.709 29.3394 177.897 29.6189 178.972 30.3229C181.455 36.2345 183.691 42.2433 185.68 48.3493C188.001 42.8642 190.097 37.2746 191.968 31.5805C194.023 28.8574 196.119 28.8574 198.256 31.5805C198.53 32.8776 198.39 34.1353 197.837 35.3535C194.985 42.6535 192.05 49.9201 189.034 57.1529C187.634 58.3343 186.027 58.6835 184.213 58.201C183.165 57.7117 182.396 56.9433 181.907 55.8952C178.948 48.6943 176.153 41.428 173.523 34.0958C173.009 32.0526 173.638 30.5154 175.409 29.4844Z" fill="#223741"/>
<path fill-rule="evenodd" clip-rule="evenodd" d="M109.591 29.4844C115.959 29.2021 120.221 31.9969 122.377 37.8688C122.657 45.1351 122.657 52.4018 122.377 59.6682C121.591 64.5064 118.866 67.6505 114.203 69.1006C110.583 69.6506 106.95 69.7902 103.303 69.5198C100.723 68.9057 99.815 67.2988 100.578 64.6988C101.067 64.2096 101.556 63.7208 102.045 63.2315C105.843 63.1821 109.616 62.9024 113.364 62.3931C114.469 61.571 115.238 60.523 115.67 59.249C115.95 52.5414 115.95 45.8339 115.67 39.1264C114.28 36.8449 112.254 35.9365 109.591 36.4015C107.769 36.3677 106.442 37.1363 105.609 38.7072C105.329 41.9212 105.329 45.1351 105.609 48.3493C106.518 50.7279 108.265 51.7759 110.849 51.4934C113.313 53.0881 113.592 55.0446 111.687 57.3625C105.021 58.5304 100.759 55.8055 98.9011 49.1877C98.6215 45.4147 98.6215 41.6417 98.9011 37.8688C100.391 32.4099 103.954 29.6151 109.591 29.4844Z" fill="#233741"/>
<path fill-rule="evenodd" clip-rule="evenodd" d="M12.3324 29.4844C13.9782 29.2943 15.3057 29.8533 16.315 31.1613C16.5945 39.5457 16.5945 47.9301 16.315 56.3144C14.561 58.8981 12.6047 59.0377 10.4459 56.7337C10.1665 48.2097 10.1665 39.6854 10.4459 31.1613C11.0315 30.503 11.6603 29.944 12.3324 29.4844Z" fill="#1F353F"/>
<path fill-rule="evenodd" clip-rule="evenodd" d="M80.2465 29.9037C84.0584 29.584 87.6918 30.2128 91.1462 31.7902C96.342 36.4693 96.6216 41.3602 91.9846 46.4628C91.3193 46.8242 90.6205 47.1038 89.8885 47.3013C85.6988 47.5109 81.5066 47.5805 77.3119 47.5109C77.205 49.1848 77.9034 50.3725 79.408 51.0742C83.6002 51.2138 87.7924 51.3539 91.9846 51.4935C95.096 53.3867 95.2356 55.4828 92.4038 57.7818C74.1607 61.478 67.1035 54.2813 71.2332 36.192C73.0531 32.3388 76.0572 30.2427 80.2465 29.9037ZM78.5696 37.0304C81.3679 36.9607 84.1628 37.0306 86.954 37.24C88.9126 38.3469 89.0522 39.6046 87.3732 41.013C84.0224 41.2225 80.6686 41.2923 77.3119 41.2226C77.0424 39.5738 77.4616 38.1764 78.5696 37.0304Z" fill="#223741"/>
<path fill-rule="evenodd" clip-rule="evenodd" d="M156.125 29.9037C159.937 29.584 163.571 30.2128 167.025 31.7902C172.221 36.4693 172.5 41.3602 167.864 46.4628C167.198 46.8242 166.499 47.1038 165.767 47.3013C161.578 47.5109 157.386 47.5805 153.191 47.5109C153.084 49.1848 153.782 50.3725 155.287 51.0742C159.479 51.2138 163.671 51.3539 167.864 51.4935C170.975 53.3867 171.115 55.4828 168.283 57.7818C150.04 61.478 142.982 54.2813 147.112 36.192C148.932 32.3388 151.936 30.2427 156.125 29.9037ZM154.448 37.0304C157.247 36.9607 160.042 37.0306 162.833 37.24C164.791 38.3469 164.931 39.6046 163.252 41.013C159.901 41.2225 156.548 41.2923 153.191 41.2226C152.921 39.5738 153.34 38.1764 154.448 37.0304Z" fill="#223741"/>
<path fill-rule="evenodd" clip-rule="evenodd" d="M248.773 29.9037C252.585 29.584 256.218 30.2128 259.672 31.7902C264.099 35.5859 264.868 39.9877 261.978 44.9956C261.253 45.8831 260.344 46.5119 259.253 46.8821C254.809 47.4702 250.337 47.6798 245.838 47.5109C245.731 49.1848 246.43 50.3725 247.934 51.0742C251.987 51.2138 256.039 51.3539 260.092 51.4935C263.258 53.3946 263.397 55.4907 260.511 57.7818C242.81 61.3212 235.753 54.2645 239.34 36.6112C241.244 32.5563 244.389 30.3205 248.773 29.9037ZM247.096 37.0304C249.894 36.9607 252.689 37.0306 255.48 37.24C257.533 38.5652 257.533 39.8228 255.48 41.013C252.269 41.2225 249.055 41.2924 245.838 41.2226C245.569 39.5738 245.988 38.1764 247.096 37.0304Z" fill="#223742"/>
<path fill-rule="evenodd" clip-rule="evenodd" d="M205.174 29.4844C206.902 29.4744 208.229 30.1731 209.156 31.5805C209.436 39.6853 209.436 47.7904 209.156 55.8952C207.244 59.0204 205.148 59.16 202.868 56.3144C202.588 48.0696 202.588 39.8251 202.868 31.5805C203.435 30.6376 204.203 29.939 205.174 29.4844Z" fill="#233842"/>
<path fill-rule="evenodd" clip-rule="evenodd" d="M221.522 29.9037C225.018 29.8339 228.512 29.9038 232.002 30.1133C234.276 30.9589 235.045 32.5659 234.308 34.9343C233.819 35.4234 233.33 35.9125 232.841 36.4016C229.207 36.5413 225.575 36.6811 221.941 36.8208C220.394 37.1102 219.905 38.0186 220.474 39.5457C220.852 40.0494 221.341 40.3988 221.941 40.5938C225.229 40.7772 228.442 41.3362 231.583 42.2707C235.904 45.3435 236.952 49.3261 234.727 54.2184C233.431 56.0747 231.684 57.2624 229.487 57.7818C224.876 58.0614 220.264 58.0614 215.653 57.7818C214.097 56.691 213.608 55.2237 214.186 53.38C214.535 52.4715 215.164 51.8427 216.072 51.4935C220.264 51.3539 224.456 51.2139 228.649 51.0743C229.813 49.4754 229.394 48.3573 227.391 47.7205C223.891 47.6337 220.537 46.9353 217.33 45.6244C212.591 41.0971 212.452 36.4857 216.911 31.7902C218.4 30.9011 219.937 30.2723 221.522 29.9037Z" fill="#233741"/>
<path fill-rule="evenodd" clip-rule="evenodd" d="M268.475 50.4453C272.452 50.1598 274.199 51.9767 273.715 55.8952C271.935 58.6264 269.699 59.0456 267.008 57.1528C265.385 54.4363 265.874 52.2006 268.475 50.4453Z" fill="#223943"/>
<path d="M80.1839 12.9158L77.6442 3.75862H79.0974L80.8814 10.85H80.9664L82.8219 3.75862H84.2617L86.1173 10.8545H86.2022L87.9818 3.75862H89.4394L86.8953 12.9158H85.5047L83.5776 6.05685H83.506L81.5789 12.9158H80.1839ZM90.6992 12.9158V3.75862H96.4403V4.94798H92.0808V7.73805H96.1407V8.92293H92.0808V11.7264H96.494V12.9158H90.6992ZM98.2858 12.9158V3.75862H99.6674V11.7264H103.817V12.9158H98.2858ZM112.642 6.73648H111.247C111.193 6.4384 111.093 6.17608 110.947 5.94954C110.801 5.723 110.622 5.53073 110.411 5.37275C110.199 5.21476 109.962 5.09553 109.7 5.01505C109.441 4.93456 109.165 4.89432 108.873 4.89432C108.345 4.89432 107.873 5.02697 107.455 5.29226C107.041 5.55756 106.713 5.94656 106.472 6.45926C106.233 6.97197 106.114 7.59795 106.114 8.3372C106.114 9.08241 106.233 9.71136 106.472 10.2241C106.713 10.7368 107.042 11.1243 107.46 11.3866C107.877 11.6489 108.347 11.7801 108.868 11.7801C109.157 11.7801 109.432 11.7413 109.691 11.6638C109.953 11.5833 110.19 11.4656 110.402 11.3106C110.613 11.1556 110.792 10.9663 110.938 10.7427C111.087 10.5162 111.19 10.2569 111.247 9.96474L112.642 9.96921C112.567 10.4193 112.423 10.8337 112.208 11.2122C111.997 11.5878 111.724 11.9127 111.39 12.187C111.059 12.4582 110.681 12.6684 110.254 12.8174C109.828 12.9664 109.363 13.041 108.859 13.041C108.066 13.041 107.36 12.8532 106.74 12.4776C106.12 12.099 105.631 11.558 105.273 10.8545C104.919 10.151 104.741 9.31193 104.741 8.3372C104.741 7.35948 104.92 6.52037 105.278 5.81987C105.635 5.11639 106.124 4.57686 106.744 4.20127C107.364 3.82271 108.069 3.63342 108.859 3.63342C109.345 3.63342 109.798 3.70347 110.219 3.84357C110.642 3.98069 111.022 4.18339 111.359 4.45167C111.696 4.71696 111.974 5.04187 112.195 5.4264C112.415 5.80795 112.564 6.24464 112.642 6.73648ZM122.25 8.3372C122.25 9.31491 122.071 10.1555 121.713 10.859C121.355 11.5595 120.865 12.099 120.242 12.4776C119.622 12.8532 118.917 13.041 118.127 13.041C117.334 13.041 116.626 12.8532 116.003 12.4776C115.383 12.099 114.894 11.558 114.537 10.8545C114.179 10.151 114 9.31193 114 8.3372C114 7.35948 114.179 6.52037 114.537 5.81987C114.894 5.11639 115.383 4.57686 116.003 4.20127C116.626 3.82271 117.334 3.63342 118.127 3.63342C118.917 3.63342 119.622 3.82271 120.242 4.20127C120.865 4.57686 121.355 5.11639 121.713 5.81987C122.071 6.52037 122.25 7.35948 122.25 8.3372ZM120.881 8.3372C120.881 7.59198 120.761 6.96452 120.519 6.45479C120.281 5.94209 119.953 5.55458 119.536 5.29226C119.121 5.02697 118.652 4.89432 118.127 4.89432C117.599 4.89432 117.128 5.02697 116.714 5.29226C116.3 5.55458 115.972 5.94209 115.73 6.45479C115.492 6.96452 115.373 7.59198 115.373 8.3372C115.373 9.08241 115.492 9.71136 115.73 10.2241C115.972 10.7338 116.3 11.1213 116.714 11.3866C117.128 11.6489 117.599 11.7801 118.127 11.7801C118.652 11.7801 119.121 11.6489 119.536 11.3866C119.953 11.1213 120.281 10.7338 120.519 10.2241C120.761 9.71136 120.881 9.08241 120.881 8.3372ZM123.972 3.75862H125.649L128.564 10.8769H128.671L131.587 3.75862H133.263V12.9158H131.949V6.28936H131.864L129.163 12.9024H128.072L125.372 6.28488H125.287V12.9158H123.972V3.75862ZM135.272 12.9158V3.75862H141.013V4.94798H136.654V7.73805H140.714V8.92293H136.654V11.7264H141.067V12.9158H135.272ZM145.739 4.94798V3.75862H152.826V4.94798H149.969V12.9158H148.592V4.94798H145.739ZM161.953 8.3372C161.953 9.31491 161.774 10.1555 161.417 10.859C161.059 11.5595 160.569 12.099 159.946 12.4776C159.326 12.8532 158.621 13.041 157.831 13.041C157.038 13.041 156.33 12.8532 155.707 12.4776C155.087 12.099 154.598 11.558 154.24 10.8545C153.883 10.151 153.704 9.31193 153.704 8.3372C153.704 7.35948 153.883 6.52037 154.24 5.81987C154.598 5.11639 155.087 4.57686 155.707 4.20127C156.33 3.82271 157.038 3.63342 157.831 3.63342C158.621 3.63342 159.326 3.82271 159.946 4.20127C160.569 4.57686 161.059 5.11639 161.417 5.81987C161.774 6.52037 161.953 7.35948 161.953 8.3372ZM160.585 8.3372C160.585 7.59198 160.464 6.96452 160.223 6.45479C159.984 5.94209 159.657 5.55458 159.239 5.29226C158.825 5.02697 158.355 4.89432 157.831 4.89432C157.303 4.89432 156.832 5.02697 156.418 5.29226C156.004 5.55458 155.676 5.94209 155.434 6.45479C155.196 6.96452 155.076 7.59198 155.076 8.3372C155.076 9.08241 155.196 9.71136 155.434 10.2241C155.676 10.7338 156.004 11.1213 156.418 11.3866C156.832 11.6489 157.303 11.7801 157.831 11.7801C158.355 11.7801 158.825 11.6489 159.239 11.3866C159.657 11.1213 159.984 10.7338 160.223 10.2241C160.464 9.71136 160.585 9.08241 160.585 8.3372Z" fill="#20353F"/>
</svg>
