<svg width="285" height="72" viewBox="0 0 285 72" fill="none" xmlns="http://www.w3.org/2000/svg">
<path fill-rule="evenodd" clip-rule="evenodd" d="M204.754 4.90869C208.734 5.76411 212.647 6.88204 216.493 8.26245C216.7 12.0329 217.259 15.6662 218.169 19.1621C217.051 19.1621 215.934 19.1621 214.816 19.1621C215.246 16.0452 215.665 12.9011 216.073 9.72971C215.934 9.65983 215.794 9.58999 215.654 9.5201C212.38 10.8781 209.026 11.9961 205.593 12.8739C201.391 11.9156 197.339 10.5881 193.436 8.89127C197.22 7.51385 200.993 6.18635 204.754 4.90869Z" fill="#233942"/>
<path fill-rule="evenodd" clip-rule="evenodd" d="M199.724 13.2931C201.678 13.991 203.635 14.6897 205.594 15.3892C207.684 14.8675 209.71 14.1688 211.672 13.2931C213.135 16.5645 212.855 19.7785 210.834 22.9351C206.74 26.5947 203.106 26.1755 199.934 21.6775C199.194 19.6415 198.705 17.5454 198.467 15.3892C198.575 14.4701 198.994 13.7714 199.724 13.2931ZM201.401 17.9045C201.426 17.6768 201.566 17.5371 201.821 17.4853C204.336 18.6032 206.851 18.6032 209.366 17.4853C209.506 17.8346 209.646 18.184 209.786 18.5333C208.651 22.7804 206.346 23.6888 202.869 21.2583C202.249 20.144 201.76 19.0261 201.401 17.9045Z" fill="#253941"/>
<path fill-rule="evenodd" clip-rule="evenodd" d="M11.493 18.3237C16.025 17.8917 17.7717 19.8481 16.7332 24.1928C14.6128 26.2397 12.377 26.3795 10.0257 24.612C8.912 22.1328 9.4011 20.0367 11.493 18.3237Z" fill="#223743"/>
<path fill-rule="evenodd" clip-rule="evenodd" d="M53.417 21.6775C55.114 21.6528 56.4417 22.3515 57.3996 23.7736C57.6088 25.5849 57.6788 27.4015 57.6092 29.2235C60.2679 29.1538 62.9228 29.2237 65.5743 29.4331C68.2913 31.2716 68.5709 33.3677 66.4128 35.7214C63.4816 35.9308 60.5471 36.0007 57.6092 35.931C57.4193 40.446 57.6289 44.9178 58.238 49.346C58.6166 49.8495 59.1054 50.1991 59.7053 50.394C62.1275 50.4334 64.5028 50.7131 66.832 51.2325C68.0452 52.452 68.3944 53.9192 67.8801 55.6343C67.3711 56.2836 66.7423 56.7725 65.9936 57.1015C63.0309 57.4533 60.0964 57.3137 57.19 56.6823C54.4541 55.6234 52.5677 53.7369 51.5305 51.0229C50.8505 41.9611 50.7109 32.878 51.1113 23.7736C51.6781 22.8308 52.4465 22.1321 53.417 21.6775Z" fill="#213640"/>
<path fill-rule="evenodd" clip-rule="evenodd" d="M31.1974 28.8042C37.8174 27.6777 42.6384 30.0533 45.6605 35.931C46.3246 42.3397 46.4646 48.7679 46.0797 55.2151C44.1257 58.3705 42.0297 58.5105 39.7914 55.6343C39.6517 49.9048 39.5119 44.1758 39.3722 38.4463C38.7434 37.2585 37.8351 36.3502 36.6473 35.7214C34.301 35.264 32.0651 35.5435 29.9398 36.5598C29.5373 37.1548 29.1879 37.7837 28.8917 38.4463C28.752 44.1758 28.6122 49.9048 28.4725 55.6343C26.1923 58.4799 24.0962 58.3403 22.1842 55.2151C21.9047 50.0448 21.9047 44.8742 22.1842 39.7039C22.5364 33.8355 25.5408 30.2022 31.1974 28.8042Z" fill="#243842"/>
<path fill-rule="evenodd" clip-rule="evenodd" d="M141.033 28.8042C143.757 28.9424 145.085 30.3398 145.015 32.9964C144.728 34.0684 144.099 34.837 143.129 35.3021C140.9 35.4779 138.665 35.7574 136.421 36.1405C135.932 36.6296 135.443 37.1187 134.954 37.6078C134.416 43.728 134.136 49.8762 134.115 56.0534C132.159 58.2891 130.203 58.2891 128.246 56.0534C127.846 49.0386 127.985 42.0515 128.666 35.0925C131.515 30.4888 135.637 28.3927 141.033 28.8042Z" fill="#213641"/>
<path fill-rule="evenodd" clip-rule="evenodd" d="M175.409 28.8043C176.709 28.6592 177.897 28.9387 178.972 29.6427C181.455 35.5543 183.691 41.5632 185.68 47.6691C188.001 42.184 190.097 36.5944 191.968 30.9004C194.023 28.1772 196.119 28.1772 198.256 30.9004C198.53 32.1974 198.39 33.4551 197.837 34.6733C194.985 41.9733 192.05 49.2399 189.034 56.4727C187.634 57.6541 186.027 58.0033 184.213 57.5208C183.165 57.0315 182.396 56.2631 181.907 55.2151C178.948 48.0141 176.153 40.7479 173.523 33.4157C173.009 31.3724 173.638 29.8352 175.409 28.8043Z" fill="#223741"/>
<path fill-rule="evenodd" clip-rule="evenodd" d="M109.591 28.8042C115.959 28.5219 120.221 31.3168 122.377 37.1886C122.657 44.4549 122.657 51.7217 122.377 58.988C121.591 63.8262 118.866 66.9703 114.203 68.4204C110.583 68.9704 106.95 69.11 103.303 68.8396C100.723 68.2255 99.815 66.6186 100.578 64.0186C101.067 63.5294 101.556 63.0406 102.045 62.5514C105.843 62.5019 109.616 62.2223 113.364 61.7129C114.469 60.8908 115.238 59.8428 115.67 58.5688C115.95 51.8613 115.95 45.1538 115.67 38.4463C114.28 36.1647 112.254 35.2564 109.591 35.7213C107.769 35.6875 106.442 36.4561 105.609 38.027C105.329 41.2411 105.329 44.4549 105.609 47.6691C106.518 50.0477 108.265 51.0958 110.849 50.8132C113.313 52.4079 113.592 54.3644 111.687 56.6823C105.021 57.8502 100.759 55.1253 98.9011 48.5075C98.6215 44.7345 98.6215 40.9616 98.9011 37.1886C100.391 31.7298 103.954 28.935 109.591 28.8042Z" fill="#233741"/>
<path fill-rule="evenodd" clip-rule="evenodd" d="M12.3324 28.8042C13.9782 28.6142 15.3057 29.1731 16.315 30.4811C16.5945 38.8655 16.5945 47.2499 16.315 55.6343C14.561 58.2179 12.6047 58.3575 10.4459 56.0535C10.1665 47.5295 10.1665 39.0052 10.4459 30.4811C11.0315 29.8228 11.6603 29.2639 12.3324 28.8042Z" fill="#1F353F"/>
<path fill-rule="evenodd" clip-rule="evenodd" d="M80.2465 29.2235C84.0584 28.9038 87.6918 29.5327 91.1462 31.11C96.342 35.7891 96.6216 40.68 91.9846 45.7827C91.3193 46.144 90.6205 46.4236 89.8885 46.6211C85.6988 46.8307 81.5066 46.9003 77.3119 46.8307C77.205 48.5046 77.9034 49.6923 79.408 50.3941C83.6002 50.5337 87.7924 50.6737 91.9846 50.8133C95.096 52.7065 95.2356 54.8026 92.4038 57.1016C74.1607 60.7978 67.1035 53.6011 71.2332 35.5118C73.0531 31.6586 76.0572 29.5625 80.2465 29.2235ZM78.5696 36.3502C81.3679 36.2805 84.1628 36.3504 86.954 36.5598C88.9126 37.6667 89.0522 38.9244 87.3732 40.3328C84.0224 40.5423 80.6686 40.6122 77.3119 40.5424C77.0424 38.8936 77.4616 37.4962 78.5696 36.3502Z" fill="#223741"/>
<path fill-rule="evenodd" clip-rule="evenodd" d="M156.125 29.2235C159.937 28.9038 163.571 29.5327 167.025 31.11C172.221 35.7891 172.5 40.68 167.864 45.7827C167.198 46.144 166.499 46.4236 165.767 46.6211C161.578 46.8307 157.386 46.9003 153.191 46.8307C153.084 48.5046 153.782 49.6923 155.287 50.3941C159.479 50.5337 163.671 50.6737 167.864 50.8133C170.975 52.7065 171.115 54.8026 168.283 57.1016C150.04 60.7978 142.982 53.6011 147.112 35.5118C148.932 31.6586 151.936 29.5625 156.125 29.2235ZM154.448 36.3502C157.247 36.2805 160.042 36.3504 162.833 36.5598C164.791 37.6667 164.931 38.9244 163.252 40.3328C159.901 40.5423 156.548 40.6122 153.191 40.5424C152.921 38.8936 153.34 37.4962 154.448 36.3502Z" fill="#223741"/>
<path fill-rule="evenodd" clip-rule="evenodd" d="M248.773 29.2235C252.585 28.9038 256.218 29.5327 259.672 31.11C264.099 34.9057 264.868 39.3075 261.978 44.3154C261.253 45.2029 260.344 45.8317 259.253 46.2019C254.809 46.79 250.337 46.9997 245.838 46.8307C245.731 48.5046 246.43 49.6923 247.934 50.3941C251.987 50.5337 256.039 50.6737 260.092 50.8133C263.258 52.7144 263.397 54.8105 260.511 57.1016C242.81 60.641 235.753 53.5843 239.34 35.931C241.244 31.8761 244.389 29.6403 248.773 29.2235ZM247.096 36.3502C249.894 36.2805 252.689 36.3504 255.48 36.5598C257.533 37.885 257.533 39.1426 255.48 40.3328C252.269 40.5423 249.055 40.6122 245.838 40.5424C245.569 38.8936 245.988 37.4962 247.096 36.3502Z" fill="#223742"/>
<path fill-rule="evenodd" clip-rule="evenodd" d="M205.174 28.8042C206.902 28.7942 208.229 29.493 209.156 30.9003C209.436 39.0052 209.436 47.1102 209.156 55.215C207.244 58.3403 205.148 58.4799 202.868 55.6342C202.588 47.3894 202.588 39.1449 202.868 30.9003C203.435 29.9575 204.203 29.2588 205.174 28.8042Z" fill="#233842"/>
<path fill-rule="evenodd" clip-rule="evenodd" d="M221.522 29.2235C225.018 29.1538 228.512 29.2236 232.002 29.4331C234.276 30.2787 235.045 31.8857 234.308 34.2542C233.819 34.7433 233.33 35.2323 232.841 35.7214C229.207 35.8611 225.575 36.0009 221.941 36.1406C220.394 36.4301 219.905 37.3384 220.474 38.8656C220.852 39.3692 221.341 39.7186 221.941 39.9136C225.229 40.0971 228.442 40.6561 231.583 41.5905C235.904 44.6634 236.952 48.646 234.727 53.5382C233.431 55.3945 231.684 56.5822 229.487 57.1016C224.876 57.3812 220.264 57.3812 215.653 57.1016C214.097 56.0108 213.608 54.5435 214.186 52.6998C214.535 51.7914 215.164 51.1625 216.072 50.8133C220.264 50.6737 224.456 50.5337 228.649 50.3941C229.813 48.7952 229.394 47.6771 227.391 47.0403C223.891 46.9536 220.537 46.2551 217.33 44.9442C212.591 40.417 212.452 35.8056 216.911 31.11C218.4 30.2209 219.937 29.5921 221.522 29.2235Z" fill="#233741"/>
<path fill-rule="evenodd" clip-rule="evenodd" d="M268.475 49.7652C272.452 49.4797 274.199 51.2966 273.715 55.215C271.935 57.9462 269.699 58.3654 267.008 56.4727C265.385 53.7561 265.874 51.5204 268.475 49.7652Z" fill="#223943"/>
<path d="M69.8967 15.2356L66.6694 3.59923H68.516L70.783 12.6106H70.891L73.2489 3.59923H75.0785L77.4364 12.6163H77.5444L79.8058 3.59923H81.658L78.4251 15.2356H76.658L74.2092 6.51969H74.1183L71.6694 15.2356H69.8967ZM83.2589 15.2356V3.59923H90.5543V5.1106H85.0146V8.65605H90.1737V10.1617H85.0146V13.7242H90.6225V15.2356H83.2589ZM92.8995 15.2356V3.59923H94.6552V13.7242H99.9279V15.2356H92.8995ZM111.142 7.38332H109.37C109.301 7.00453 109.175 6.6712 108.989 6.38332C108.803 6.09544 108.576 5.85113 108.307 5.65037C108.038 5.44961 107.737 5.2981 107.404 5.19582C107.074 5.09355 106.724 5.04241 106.353 5.04241C105.682 5.04241 105.082 5.21097 104.551 5.5481C104.025 5.88522 103.608 6.37954 103.301 7.03105C102.998 7.68257 102.847 8.47802 102.847 9.41741C102.847 10.3644 102.998 11.1636 103.301 11.8151C103.608 12.4667 104.027 12.9591 104.557 13.2924C105.087 13.6257 105.684 13.7924 106.347 13.7924C106.714 13.7924 107.063 13.7432 107.392 13.6447C107.726 13.5424 108.027 13.3928 108.296 13.1958C108.565 12.9989 108.792 12.7583 108.978 12.4742C109.167 12.1864 109.298 11.8568 109.37 11.4856L111.142 11.4913C111.048 12.0632 110.864 12.5898 110.591 13.0708C110.322 13.5481 109.976 13.961 109.551 14.3095C109.131 14.6542 108.65 14.9212 108.108 15.1106C107.567 15.3 106.976 15.3947 106.336 15.3947C105.328 15.3947 104.43 15.1561 103.642 14.6788C102.855 14.1977 102.233 13.5102 101.779 12.6163C101.328 11.7223 101.103 10.6561 101.103 9.41741C101.103 8.17499 101.33 7.1087 101.784 6.21855C102.239 5.32461 102.86 4.639 103.648 4.16173C104.436 3.68067 105.332 3.44014 106.336 3.44014C106.953 3.44014 107.529 3.52916 108.063 3.70719C108.601 3.88143 109.084 4.139 109.512 4.47991C109.94 4.81704 110.294 5.22991 110.574 5.71855C110.855 6.2034 111.044 6.75832 111.142 7.38332ZM123.351 9.41741C123.351 10.6598 123.124 11.728 122.669 12.622C122.215 13.5121 121.592 14.1977 120.8 14.6788C120.012 15.1561 119.116 15.3947 118.113 15.3947C117.105 15.3947 116.205 15.1561 115.414 14.6788C114.626 14.1977 114.005 13.5102 113.55 12.6163C113.096 11.7223 112.868 10.6561 112.868 9.41741C112.868 8.17499 113.096 7.1087 113.55 6.21855C114.005 5.32461 114.626 4.639 115.414 4.16173C116.205 3.68067 117.105 3.44014 118.113 3.44014C119.116 3.44014 120.012 3.68067 120.8 4.16173C121.592 4.639 122.215 5.32461 122.669 6.21855C123.124 7.1087 123.351 8.17499 123.351 9.41741ZM121.613 9.41741C121.613 8.47044 121.459 7.6731 121.152 7.02537C120.849 6.37385 120.433 5.88143 119.902 5.5481C119.376 5.21097 118.779 5.04241 118.113 5.04241C117.442 5.04241 116.844 5.21097 116.317 5.5481C115.791 5.88143 115.374 6.37385 115.067 7.02537C114.764 7.6731 114.613 8.47044 114.613 9.41741C114.613 10.3644 114.764 11.1636 115.067 11.8151C115.374 12.4629 115.791 12.9553 116.317 13.2924C116.844 13.6257 117.442 13.7924 118.113 13.7924C118.779 13.7924 119.376 13.6257 119.902 13.2924C120.433 12.9553 120.849 12.4629 121.152 11.8151C121.459 11.1636 121.613 10.3644 121.613 9.41741ZM125.54 3.59923H127.671L131.375 12.6447H131.512L135.216 3.59923H137.347V15.2356H135.676V6.81514H135.569L132.137 15.2186H130.75L127.319 6.80946H127.211V15.2356H125.54V3.59923ZM139.9 15.2356V3.59923H147.195V5.1106H141.655V8.65605H146.814V10.1617H141.655V13.7242H147.263V15.2356H139.9ZM153.201 5.1106V3.59923H162.206V5.1106H158.576V15.2356H156.826V5.1106H153.201ZM173.804 9.41741C173.804 10.6598 173.577 11.728 173.123 12.622C172.668 13.5121 172.045 14.1977 171.253 14.6788C170.465 15.1561 169.569 15.3947 168.566 15.3947C167.558 15.3947 166.658 15.1561 165.867 14.6788C165.079 14.1977 164.458 13.5102 164.003 12.6163C163.549 11.7223 163.321 10.6561 163.321 9.41741C163.321 8.17499 163.549 7.1087 164.003 6.21855C164.458 5.32461 165.079 4.639 165.867 4.16173C166.658 3.68067 167.558 3.44014 168.566 3.44014C169.569 3.44014 170.465 3.68067 171.253 4.16173C172.045 4.639 172.668 5.32461 173.123 6.21855C173.577 7.1087 173.804 8.17499 173.804 9.41741ZM172.066 9.41741C172.066 8.47044 171.912 7.6731 171.605 7.02537C171.302 6.37385 170.886 5.88143 170.355 5.5481C169.829 5.21097 169.232 5.04241 168.566 5.04241C167.895 5.04241 167.297 5.21097 166.77 5.5481C166.244 5.88143 165.827 6.37385 165.52 7.02537C165.217 7.6731 165.066 8.47044 165.066 9.41741C165.066 10.3644 165.217 11.1636 165.52 11.8151C165.827 12.4629 166.244 12.9553 166.77 13.2924C167.297 13.6257 167.895 13.7924 168.566 13.7924C169.232 13.7924 169.829 13.6257 170.355 13.2924C170.886 12.9553 171.302 12.4629 171.605 11.8151C171.912 11.1636 172.066 10.3644 172.066 9.41741Z" fill="#20353F"/>
</svg>
